# Blender 4.2.3 LTS
# www.blender.org
mtllib react_arm.mtl
o react_arm
v -0.500000 9.335714 -0.000001
v -0.524984 9.491791 -0.000001
v -0.597440 9.632270 -0.000001
v 0.773377 11.133946 -0.000001
v 0.982291 11.633624 0.000000
v 0.505956 11.362559 -0.000001
v 0.623122 11.864448 0.000000
v 0.175910 11.484406 0.000000
v 0.213472 11.984732 0.000000
v -0.175910 11.484406 0.000000
v -0.213472 11.984732 0.000000
v -0.505957 11.362559 -0.000001
v 0.597440 9.632270 -0.000001
v 0.982291 9.366376 -0.000001
v 0.746509 9.834625 -0.000001
v 1.261880 9.689038 -0.000001
v 0.930751 10.134346 -0.000001
v 1.439240 10.077401 -0.000001
v 0.999786 10.479326 -0.000001
v 1.500000 10.500000 -0.000001
v 0.945071 10.826865 -0.000001
v 1.439240 10.922599 -0.000001
v 1.261880 11.310961 -0.000001
v -0.623123 11.864448 0.000000
v -0.982291 11.633624 0.000000
v -0.773377 11.133946 -0.000001
v -1.261880 11.310961 -0.000001
v -0.945071 10.826865 -0.000001
v -1.439240 10.922599 -0.000001
v -0.999786 10.479326 -0.000001
v -1.500000 10.500000 -0.000001
v -0.930751 10.134346 -0.000001
v -1.439240 10.077401 -0.000001
v -0.746509 9.834625 -0.000001
v -1.261880 9.689038 -0.000001
v -0.982291 9.366376 -0.000001
v -0.623123 9.135551 -0.000001
v -0.500000 9.085787 -0.000001
v 0.524984 9.491791 -0.000001
v 0.500000 9.335714 -0.000001
v 0.623122 9.135551 -0.000001
v 0.500000 9.085787 -0.000001
v 0.213472 9.015267 -1.500001
v -0.213472 9.015267 -0.000001
v -0.213472 9.015267 -1.500001
v -0.623123 9.135551 -1.500001
v -0.982291 9.366376 -1.500001
v -1.261880 9.689038 -1.500001
v -1.439240 10.077401 -1.500001
v -1.500000 10.500000 -1.500001
v -1.439240 10.922599 -1.500001
v -1.261880 11.310961 -1.500001
v -0.982291 11.633624 -1.500001
v -0.623123 11.864448 -1.500001
v -0.213472 11.984732 -1.500001
v 0.213472 11.984732 -1.500001
v 0.623122 11.864448 -1.500001
v 0.982291 11.633624 -1.500001
v 1.261880 11.310961 -1.500001
v 1.439240 10.922599 -1.500001
v 1.500000 10.500000 -1.500001
v 1.439240 10.077401 -1.500001
v 1.261880 9.689038 -1.500001
v 0.982291 9.366376 -1.500001
v 0.623122 9.135551 -1.500001
v 0.213472 9.015267 -0.000001
v 0.000000 10.500000 -1.500001
v 0.500000 0.000000 0.300000
v 0.500000 0.000000 0.000000
v 0.500000 9.335714 0.299999
v 0.597440 9.632270 0.299999
v 0.746509 9.834625 0.299999
v 0.930751 10.134346 0.299999
v 0.999786 10.479326 0.299999
v 0.945071 10.826865 0.299999
v 0.773377 11.133946 0.299999
v 0.505956 11.362559 0.299999
v 0.175910 11.484406 0.299999
v -0.175910 11.484406 0.299999
v -0.505957 11.362559 0.299999
v -0.773377 11.133946 0.299999
v -0.945071 10.826865 0.299999
v -0.999786 10.479326 0.299999
v -0.930751 10.134346 0.299999
v -0.746509 9.834625 0.299999
v -0.597440 9.632270 0.299999
v -0.500000 0.000000 0.000000
v -0.500000 0.000000 0.300000
v -0.500000 9.335714 0.299999
v 0.075000 -0.129904 0.300000
v 0.353553 -0.353554 0.300000
v 0.129904 -0.075000 0.300000
v 0.461940 -0.191342 0.300000
v 0.150000 0.000000 0.300000
v 0.129904 0.075000 0.300000
v -0.461940 -0.191342 0.300000
v -0.129904 -0.075000 0.300000
v -0.353553 -0.353554 0.300000
v -0.075000 -0.129904 0.300000
v -0.191342 -0.461940 0.300000
v 0.000000 -0.150000 0.300000
v 0.000000 -0.500000 0.300000
v 0.191342 -0.461940 0.300000
v -0.524984 9.491791 0.299999
v -0.072500 10.374426 0.299999
v -0.150000 0.000000 0.300000
v -0.129904 0.075000 0.300000
v -0.075000 0.129904 0.300000
v 0.000000 0.150000 0.300000
v 0.000000 10.355000 0.299999
v 0.145000 10.500000 0.299999
v 0.072500 10.374426 0.299999
v 0.075000 0.129904 0.300000
v 0.125574 10.427500 0.299999
v -0.125574 10.427500 0.299999
v 0.524984 9.491791 0.299999
v -0.145000 10.500000 0.299999
v -0.125574 10.572500 0.299999
v -0.072500 10.625573 0.299999
v 0.000000 10.645000 0.299999
v 0.072500 10.625573 0.299999
v 0.125574 10.572500 0.299999
v -0.075000 0.129904 -0.000000
v -0.129904 0.075000 -0.000000
v -0.150000 0.000000 0.000000
v -0.461940 -0.191342 0.000000
v -0.129904 -0.075000 0.000000
v -0.353553 -0.353554 0.000000
v -0.075000 -0.129904 0.000000
v 0.000000 0.150000 -0.000000
v 0.075000 0.129904 -0.000000
v 0.129904 0.075000 -0.000000
v 0.150000 0.000000 0.000000
v 0.129904 -0.075000 0.000000
v 0.461940 -0.191342 0.000000
v 0.353553 -0.353554 0.000000
v 0.075000 -0.129904 0.000000
v 0.191342 -0.461940 0.000000
v 0.000000 -0.150000 0.000000
v 0.000000 -0.500000 0.000000
v -0.191342 -0.461940 0.000000
v 0.072500 10.374426 1.499999
v 0.125574 10.427500 1.499999
v 0.000000 10.500000 1.499999
v 0.145000 10.500000 1.499999
v 0.125574 10.572500 1.499999
v -0.125574 10.427500 1.499999
v -0.072500 10.374426 1.499999
v 0.000000 10.355000 1.499999
v -0.072500 10.625573 1.499999
v -0.125574 10.572500 1.499999
v -0.145000 10.500000 1.499999
v 0.072500 10.625573 1.499999
v 0.000000 10.645000 1.499999
vn -0.0000 -0.0000 1.0000
vn -0.0000 -1.0000 -0.0000
vn -0.2390 -0.9710 -0.0000
vn -0.2817 -0.9595 -0.0087
vn -0.3747 -0.9271 -0.0000
vn -0.5406 -0.8413 -0.0000
vn -0.7557 -0.6549 -0.0000
vn -0.9096 -0.4154 -0.0000
vn -0.9898 -0.1423 -0.0000
vn -0.9898 0.1423 -0.0000
vn -0.9096 0.4154 -0.0000
vn -0.7557 0.6549 -0.0000
vn -0.5406 0.8413 -0.0000
vn -0.2817 0.9595 -0.0000
vn -0.0000 1.0000 -0.0000
vn 0.2817 0.9595 -0.0000
vn 0.5406 0.8413 -0.0000
vn 0.7557 0.6549 -0.0000
vn 0.9096 0.4154 -0.0000
vn 0.9898 0.1423 -0.0000
vn 0.9898 -0.1423 -0.0000
vn 0.9096 -0.4154 -0.0000
vn 0.7557 -0.6549 -0.0000
vn 0.5406 -0.8413 -0.0000
vn 0.3747 -0.9271 -0.0000
vn 0.2817 -0.9595 -0.0087
vn 0.2390 -0.9710 -0.0000
vn -0.0000 -0.0000 -1.0000
vn 1.0000 -0.0000 -0.0000
vn 0.8051 -0.5931 -0.0000
vn 0.8519 -0.5237 -0.0000
vn 0.9806 -0.1962 -0.0000
vn 0.9878 0.1555 -0.0000
vn 0.8728 0.4880 -0.0000
vn 0.6498 0.7601 -0.0000
vn 0.3463 0.9381 -0.0000
vn -0.3463 0.9381 -0.0000
vn -0.6498 0.7601 -0.0000
vn -0.8728 0.4880 -0.0000
vn -0.9878 0.1555 -0.0000
vn -0.9806 -0.1962 -0.0000
vn -0.8519 -0.5237 -0.0000
vn -0.8051 -0.5931 -0.0000
vn -1.0000 -0.0000 -0.0000
vn -0.9659 0.2588 -0.0000
vn -0.7071 0.7071 -0.0000
vn -0.2588 0.9659 -0.0000
vn 0.2588 0.9659 -0.0000
vn 0.7071 0.7071 -0.0000
vn 0.9659 0.2588 -0.0000
vn 0.9659 -0.2588 -0.0000
vn 0.7071 -0.7071 -0.0000
vn 0.2588 -0.9659 -0.0000
vn -0.2588 -0.9659 -0.0000
vn -0.7071 -0.7071 -0.0000
vn -0.9659 -0.2588 -0.0000
vn 0.8887 -0.4584 -0.0000
vn 0.9874 -0.1581 -0.0000
vn -0.9874 -0.1581 -0.0000
vn -0.8887 -0.4584 -0.0000
vn 0.1951 -0.9808 -0.0000
vn 0.5556 -0.8315 -0.0000
vn 0.8315 -0.5556 -0.0000
vn 0.9808 -0.1951 -0.0000
vn -0.9808 -0.1951 -0.0000
vn -0.8315 -0.5556 -0.0000
vn -0.5556 -0.8315 -0.0000
vn -0.1951 -0.9808 -0.0000
s 0
usemtl Material.001
f 1//1 2//1 3//1
f 4//1 5//1 6//1
f 6//1 5//1 7//1
f 6//1 7//1 8//1
f 8//1 7//1 9//1
f 8//1 9//1 10//1
f 10//1 9//1 11//1
f 10//1 11//1 12//1
f 13//1 14//1 15//1
f 15//1 14//1 16//1
f 15//1 16//1 17//1
f 17//1 16//1 18//1
f 17//1 18//1 19//1
f 19//1 18//1 20//1
f 19//1 20//1 21//1
f 21//1 20//1 22//1
f 21//1 22//1 4//1
f 4//1 22//1 23//1
f 4//1 23//1 5//1
f 11//1 24//1 12//1
f 12//1 24//1 25//1
f 12//1 25//1 26//1
f 26//1 25//1 27//1
f 26//1 27//1 28//1
f 28//1 27//1 29//1
f 28//1 29//1 30//1
f 30//1 29//1 31//1
f 30//1 31//1 32//1
f 32//1 31//1 33//1
f 32//1 33//1 34//1
f 34//1 33//1 35//1
f 34//1 35//1 3//1
f 3//1 35//1 36//1
f 3//1 36//1 1//1
f 1//1 36//1 37//1
f 1//1 37//1 38//1
f 13//1 39//1 14//1
f 14//1 39//1 40//1
f 14//1 40//1 41//1
f 41//1 40//1 42//1
f 43//2 44//2 45//2
f 45//3 44//3 38//3
f 45//4 38//4 46//4
f 38//5 37//5 46//5
f 46//6 37//6 36//6
f 46//6 36//6 47//6
f 47//7 36//7 35//7
f 47//7 35//7 48//7
f 48//8 35//8 33//8
f 48//8 33//8 49//8
f 49//9 33//9 31//9
f 49//9 31//9 50//9
f 50//10 31//10 29//10
f 50//10 29//10 51//10
f 51//11 29//11 27//11
f 51//11 27//11 52//11
f 52//12 27//12 25//12
f 52//12 25//12 53//12
f 53//13 25//13 24//13
f 53//13 24//13 54//13
f 54//14 24//14 11//14
f 54//14 11//14 55//14
f 55//15 11//15 9//15
f 55//15 9//15 56//15
f 56//16 9//16 7//16
f 56//16 7//16 57//16
f 57//17 7//17 5//17
f 57//17 5//17 58//17
f 58//18 5//18 23//18
f 58//18 23//18 59//18
f 59//19 23//19 22//19
f 59//19 22//19 60//19
f 60//20 22//20 20//20
f 60//20 20//20 61//20
f 61//21 20//21 18//21
f 61//21 18//21 62//21
f 62//22 18//22 16//22
f 62//22 16//22 63//22
f 63//23 16//23 14//23
f 63//23 14//23 64//23
f 64//24 14//24 41//24
f 64//24 41//24 65//24
f 65//25 41//25 42//25
f 65//26 42//26 43//26
f 43//27 42//27 66//27
f 43//2 66//2 44//2
f 61//28 62//28 67//28
f 58//28 59//28 67//28
f 67//28 59//28 60//28
f 67//28 60//28 61//28
f 55//28 56//28 67//28
f 67//28 56//28 57//28
f 67//28 57//28 58//28
f 52//28 53//28 67//28
f 67//28 53//28 54//28
f 67//28 54//28 55//28
f 49//28 50//28 67//28
f 67//28 50//28 51//28
f 67//28 51//28 52//28
f 46//28 47//28 67//28
f 67//28 47//28 48//28
f 67//28 48//28 49//28
f 65//28 43//28 67//28
f 67//28 43//28 45//28
f 67//28 45//28 46//28
f 62//28 63//28 67//28
f 67//28 63//28 64//28
f 67//28 64//28 65//28
f 68//29 69//29 70//29
f 70//29 69//29 42//29
f 70//29 42//29 40//29
f 13//30 15//30 71//30
f 71//30 15//30 72//30
f 72//31 15//31 17//31
f 72//31 17//31 73//31
f 73//32 17//32 19//32
f 73//32 19//32 74//32
f 74//33 19//33 21//33
f 74//33 21//33 75//33
f 75//34 21//34 4//34
f 75//34 4//34 76//34
f 76//35 4//35 6//35
f 76//35 6//35 77//35
f 77//36 6//36 8//36
f 77//36 8//36 78//36
f 78//15 8//15 10//15
f 78//15 10//15 79//15
f 79//37 10//37 12//37
f 79//37 12//37 80//37
f 80//38 12//38 26//38
f 80//38 26//38 81//38
f 81//39 26//39 28//39
f 81//39 28//39 82//39
f 82//40 28//40 30//40
f 82//40 30//40 83//40
f 83//41 30//41 32//41
f 83//41 32//41 84//41
f 84//42 32//42 34//42
f 84//42 34//42 85//42
f 86//43 85//43 3//43
f 3//43 85//43 34//43
f 87//44 88//44 38//44
f 38//44 88//44 89//44
f 38//44 89//44 1//44
f 90//1 91//1 92//1
f 92//1 91//1 93//1
f 92//1 93//1 94//1
f 94//1 93//1 68//1
f 94//1 68//1 95//1
f 88//1 96//1 97//1
f 97//1 96//1 98//1
f 97//1 98//1 99//1
f 99//1 98//1 100//1
f 99//1 100//1 101//1
f 101//1 100//1 102//1
f 101//1 102//1 90//1
f 90//1 102//1 103//1
f 90//1 103//1 91//1
f 86//1 104//1 105//1
f 97//1 106//1 88//1
f 88//1 106//1 107//1
f 88//1 107//1 89//1
f 89//1 107//1 108//1
f 89//1 108//1 109//1
f 105//1 104//1 110//1
f 111//1 71//1 72//1
f 104//1 89//1 110//1
f 110//1 89//1 109//1
f 110//1 109//1 112//1
f 112//1 109//1 113//1
f 112//1 113//1 114//1
f 114//1 113//1 111//1
f 86//1 105//1 85//1
f 85//1 105//1 115//1
f 85//1 115//1 84//1
f 95//1 68//1 113//1
f 113//1 68//1 70//1
f 113//1 70//1 111//1
f 111//1 70//1 116//1
f 111//1 116//1 71//1
f 84//1 115//1 83//1
f 83//1 115//1 117//1
f 83//1 117//1 82//1
f 82//1 117//1 118//1
f 82//1 118//1 81//1
f 81//1 118//1 80//1
f 80//1 118//1 119//1
f 80//1 119//1 79//1
f 79//1 119//1 120//1
f 79//1 120//1 78//1
f 78//1 120//1 77//1
f 77//1 120//1 121//1
f 77//1 121//1 76//1
f 76//1 121//1 122//1
f 76//1 122//1 75//1
f 75//1 122//1 111//1
f 75//1 111//1 74//1
f 74//1 111//1 72//1
f 74//1 72//1 73//1
f 123//28 124//28 87//28
f 87//28 124//28 125//28
f 87//28 125//28 126//28
f 126//28 125//28 127//28
f 126//28 127//28 128//28
f 128//28 127//28 129//28
f 87//28 38//28 123//28
f 123//28 38//28 44//28
f 123//28 44//28 130//28
f 130//28 44//28 66//28
f 130//28 66//28 131//28
f 131//28 66//28 42//28
f 131//28 42//28 132//28
f 132//28 42//28 69//28
f 132//28 69//28 133//28
f 133//28 69//28 134//28
f 69//28 135//28 134//28
f 134//28 135//28 136//28
f 134//28 136//28 137//28
f 137//28 136//28 138//28
f 137//28 138//28 139//28
f 139//28 138//28 140//28
f 139//28 140//28 129//28
f 129//28 140//28 141//28
f 129//28 141//28 128//28
f 142//1 143//1 144//1
f 144//1 143//1 145//1
f 144//1 145//1 146//1
f 147//1 148//1 144//1
f 144//1 148//1 149//1
f 144//1 149//1 142//1
f 150//1 151//1 144//1
f 144//1 151//1 152//1
f 144//1 152//1 147//1
f 146//1 153//1 144//1
f 144//1 153//1 154//1
f 144//1 154//1 150//1
f 117//45 151//45 118//45
f 118//46 151//46 150//46
f 118//46 150//46 119//46
f 119//47 150//47 154//47
f 119//47 154//47 120//47
f 120//48 154//48 153//48
f 120//48 153//48 121//48
f 121//49 153//49 146//49
f 121//49 146//49 122//49
f 122//50 146//50 145//50
f 122//50 145//50 111//50
f 111//51 145//51 143//51
f 111//51 143//51 114//51
f 114//52 143//52 142//52
f 114//52 142//52 112//52
f 112//53 142//53 149//53
f 112//53 149//53 110//53
f 110//54 149//54 148//54
f 110//54 148//54 105//54
f 105//55 148//55 147//55
f 105//55 147//55 115//55
f 115//56 147//56 152//56
f 115//56 152//56 117//56
f 117//45 152//45 151//45
f 133//56 94//56 132//56
f 132//56 94//56 95//56
f 132//55 95//55 131//55
f 131//55 95//55 113//55
f 131//54 113//54 130//54
f 130//54 113//54 109//54
f 130//53 109//53 123//53
f 123//53 109//53 108//53
f 123//52 108//52 124//52
f 124//52 108//52 107//52
f 124//51 107//51 125//51
f 125//51 107//51 106//51
f 125//50 106//50 127//50
f 127//50 106//50 97//50
f 127//49 97//49 129//49
f 129//49 97//49 99//49
f 129//48 99//48 139//48
f 139//48 99//48 101//48
f 139//47 101//47 137//47
f 137//47 101//47 90//47
f 137//46 90//46 134//46
f 134//46 90//46 92//46
f 134//45 92//45 133//45
f 133//45 92//45 94//45
f 13//57 71//57 39//57
f 39//57 71//57 116//57
f 39//58 116//58 40//58
f 40//58 116//58 70//58
f 1//59 89//59 2//59
f 2//59 89//59 104//59
f 2//60 104//60 3//60
f 3//60 104//60 86//60
f 102//61 140//61 138//61
f 102//61 138//61 103//61
f 103//62 138//62 136//62
f 103//62 136//62 91//62
f 91//63 136//63 135//63
f 91//63 135//63 93//63
f 93//64 135//64 69//64
f 93//64 69//64 68//64
f 88//65 87//65 126//65
f 88//65 126//65 96//65
f 96//66 126//66 128//66
f 96//66 128//66 98//66
f 98//67 128//67 141//67
f 98//67 141//67 100//67
f 100//68 141//68 140//68
f 100//68 140//68 102//68
