# Blender 4.2.3 LTS
# www.blender.org
mtllib shadow_test.mtl
o shit
v -60.000000 6.000004 60.000000
v 60.000000 6.000004 60.000000
v -60.000000 5.999995 -60.000000
v 60.000000 5.999995 -60.000000
v -42.857128 6.000004 60.000000
v -25.714291 6.000004 60.000000
v -8.571421 6.000004 60.000000
v 8.571421 6.000004 60.000000
v 25.714291 6.000004 60.000000
v 42.857128 6.000004 60.000000
v 42.857128 5.999995 -60.000000
v 25.714291 5.999995 -60.000000
v 8.571421 5.999995 -60.000000
v -8.571421 5.999995 -60.000000
v -25.714291 5.999995 -60.000000
v -42.857128 5.999995 -60.000000
v -60.000000 129.094269 -60.000008
v 60.000000 65.999992 -60.000008
v 42.857128 65.999992 -60.000008
v 25.714291 65.999992 -60.000008
v 8.571421 65.999992 -60.000008
v -8.571421 65.999992 -60.000008
v -25.714291 65.999992 -60.000008
v -42.857128 129.094269 -60.000008
v -60.000000 0.000005 60.000000
v 60.000000 0.000005 60.000000
v -60.000000 1.757365 -64.242630
v 60.000000 1.757365 -64.242630
v -42.857128 0.000005 60.000000
v -25.714291 0.000005 60.000000
v -8.571421 0.000005 60.000000
v 8.571421 0.000005 60.000000
v 25.714291 0.000005 60.000000
v 42.857128 0.000005 60.000000
v 42.857128 0.633445 -62.683289
v 25.714291 0.633445 -62.683289
v 8.571421 0.633445 -62.683289
v -8.571421 0.633445 -62.683289
v -25.714291 0.633445 -62.683289
v -42.857128 0.633445 -62.683289
v -60.000000 129.094269 -66.000008
v 60.000000 65.999992 -66.000008
v 42.857128 65.999992 -66.000008
v 25.714291 65.999992 -66.000008
v 8.571421 65.999992 -66.000008
v -8.571421 65.999992 -66.000008
v -25.714291 65.999992 -66.000008
v -42.857128 129.094269 -66.000008
vn -0.0000 1.0000 -0.0000
vn -0.0000 -0.0000 1.0000
vn 0.0323 -0.9994 -0.0097
vn -0.0323 -0.9994 -0.0097
vn -0.0000 -1.0000 -0.0052
vn 0.0450 -0.0180 -0.9988
vn 0.0449 -0.0183 -0.9988
vn 0.0458 -0.0143 -0.9988
vn -0.0000 -0.0507 -0.9987
vn -0.0441 -0.0391 -0.9983
vn -1.0000 -0.0000 -0.0000
vn 1.0000 -0.0000 -0.0000
vn -0.0000 0.4472 -0.8944
vn 0.0450 -0.0214 -0.9988
vn 0.0441 -0.0256 -0.9987
vn 0.0450 -0.0217 -0.9988
vt 1.000000 0.000000
vt 0.857143 1.000000
vt 0.857143 0.000000
vt 0.142857 0.000000
vt 0.000000 1.000000
vt 0.000000 0.000000
vt 0.285714 0.000000
vt 0.142857 1.000000
vt 0.428571 0.000000
vt 0.285714 1.000000
vt 0.571429 0.000000
vt 0.428571 1.000000
vt 0.714286 0.000000
vt 0.571429 1.000000
vt 0.714286 1.000000
vt 1.000000 1.000000
s 0
usemtl Material.002
f 2/1/1 11/2/1 10/3/1
f 5/4/1 3/5/1 1/6/1
f 6/7/1 16/8/1 5/4/1
f 7/9/1 15/10/1 6/7/1
f 8/11/1 14/12/1 7/9/1
f 9/13/1 13/14/1 8/11/1
f 10/3/1 12/15/1 9/13/1
f 16/8/2 17/5/2 3/5/2
f 14/12/2 23/10/2 15/10/2
f 12/15/2 21/14/2 13/14/2
f 4/16/2 19/2/2 11/2/2
f 35/2/3 26/1/3 34/3/3
f 25/6/4 40/8/4 29/4/4
f 40/8/5 30/7/5 29/4/5
f 39/10/5 31/9/5 30/7/5
f 38/12/5 32/11/5 31/9/5
f 37/14/5 33/13/5 32/11/5
f 36/15/5 34/3/5 33/13/5
f 27/5/6 48/8/7 40/8/8
f 47/10/9 38/12/9 39/10/9
f 45/14/9 36/15/9 37/14/9
f 43/2/10 28/16/10 35/2/10
f 3/5/11 25/6/11 1/6/11
f 10/3/2 26/1/2 2/1/2
f 4/16/12 26/1/12 28/16/12
f 1/6/2 29/4/2 5/4/2
f 5/4/2 30/7/2 6/7/2
f 6/7/2 31/9/2 7/9/2
f 7/9/2 32/11/2 8/11/2
f 8/11/2 33/13/2 9/13/2
f 9/13/2 34/3/2 10/3/2
f 11/2/13 36/15/13 12/15/13
f 13/14/13 38/12/13 14/12/13
f 15/10/13 40/8/13 16/8/13
f 24/8/1 41/5/1 17/5/1
f 18/16/1 43/2/1 19/2/1
f 20/15/1 45/14/1 21/14/1
f 22/12/1 47/10/1 23/10/1
f 3/5/11 41/5/11 27/5/11
f 16/8/12 48/8/12 24/8/12
f 15/10/11 47/10/11 39/10/11
f 14/12/12 46/12/12 22/12/12
f 13/14/11 45/14/11 37/14/11
f 12/15/12 44/15/12 20/15/12
f 11/2/11 43/2/11 35/2/11
f 4/16/12 42/16/12 18/16/12
f 2/1/1 4/16/1 11/2/1
f 5/4/1 16/8/1 3/5/1
f 6/7/1 15/10/1 16/8/1
f 7/9/1 14/12/1 15/10/1
f 8/11/1 13/14/1 14/12/1
f 9/13/1 12/15/1 13/14/1
f 10/3/1 11/2/1 12/15/1
f 16/8/2 24/8/2 17/5/2
f 14/12/2 22/12/2 23/10/2
f 12/15/2 20/15/2 21/14/2
f 4/16/2 18/16/2 19/2/2
f 35/2/3 28/16/3 26/1/3
f 25/6/4 27/5/4 40/8/4
f 40/8/5 39/10/5 30/7/5
f 39/10/5 38/12/5 31/9/5
f 38/12/5 37/14/5 32/11/5
f 37/14/5 36/15/5 33/13/5
f 36/15/5 35/2/5 34/3/5
f 27/5/14 41/5/15 48/8/16
f 47/10/9 46/12/9 38/12/9
f 45/14/9 44/15/9 36/15/9
f 43/2/10 42/16/10 28/16/10
f 3/5/11 27/5/11 25/6/11
f 10/3/2 34/3/2 26/1/2
f 4/16/12 2/1/12 26/1/12
f 1/6/2 25/6/2 29/4/2
f 5/4/2 29/4/2 30/7/2
f 6/7/2 30/7/2 31/9/2
f 7/9/2 31/9/2 32/11/2
f 8/11/2 32/11/2 33/13/2
f 9/13/2 33/13/2 34/3/2
f 11/2/13 35/2/13 36/15/13
f 13/14/13 37/14/13 38/12/13
f 15/10/13 39/10/13 40/8/13
f 24/8/1 48/8/1 41/5/1
f 18/16/1 42/16/1 43/2/1
f 20/15/1 44/15/1 45/14/1
f 22/12/1 46/12/1 47/10/1
f 3/5/11 17/5/11 41/5/11
f 16/8/12 40/8/12 48/8/12
f 15/10/11 23/10/11 47/10/11
f 14/12/12 38/12/12 46/12/12
f 13/14/11 21/14/11 45/14/11
f 12/15/12 36/15/12 44/15/12
f 11/2/11 19/2/11 43/2/11
f 4/16/12 28/16/12 42/16/12
